<?xml version="1.0" standalone="no"?>
<!DOCTYPE svg PUBLIC "-//W3C//DTD SVG 20010904//EN"
 "http://www.w3.org/TR/2001/REC-SVG-20010904/DTD/svg10.dtd">
<svg version="1.0" xmlns="http://www.w3.org/2000/svg"
 width="1000.000000pt" height="1000.000000pt" viewBox="0 0 1000.000000 1000.000000"
 preserveAspectRatio="xMidYMid meet">
<metadata>
Created by potrace 1.14, written by Peter Selinger 2001-2017
</metadata>
<g transform="translate(0.000000,1000.000000) scale(0.100000,-0.100000)"
fill="#000000" stroke="none">
<path d="M7126 6135 c0 -113 -2 -206 -5 -206 -3 -1 -85 -3 -181 -4 -96 -2
-178 -3 -181 -4 -3 -1 -5 -57 -5 -126 l0 -125 186 0 186 0 -1 -477 c0 -577 4
-646 48 -733 29 -57 97 -104 175 -121 35 -8 134 -13 256 -14 l200 0 0 118 c1
66 -1 120 -4 122 -3 2 -45 5 -92 6 -128 4 -174 29 -184 98 -3 20 -7 937 -5
989 1 9 58 12 251 12 l251 0 -3 127 -3 127 -247 0 c-167 0 -248 3 -249 10 0 6
0 100 0 209 l-1 197 -196 0 -197 0 1 -205z"/>
<path d="M755 5919 c-205 -21 -297 -115 -335 -341 -5 -29 -9 -233 -9 -453 0
-438 8 -523 56 -619 44 -90 121 -151 213 -172 19 -4 250 -9 513 -11 l477 -4 0
126 0 126 -337 -2 c-186 -1 -364 2 -395 6 -68 9 -93 31 -118 105 -15 45 -17
98 -17 433 0 421 6 480 51 525 l26 27 396 3 395 3 -3 126 -3 127 -425 1 c-234
0 -452 -3 -485 -6z"/>
<path d="M2382 5914 c-189 -23 -307 -94 -366 -218 -48 -101 -49 -115 -50 -763
l-2 -613 193 0 193 0 1 543 c1 663 2 694 35 744 37 58 38 58 426 61 l358 3 0
127 0 127 -350 0 c-193 0 -390 -5 -438 -11z"/>
<path d="M5200 5922 c-7 -3 -10 -482 -10 -1411 l0 -1408 193 1 192 1 0 602 c0
331 3 604 6 607 2 3 141 6 307 7 311 1 383 8 454 45 53 27 98 76 128 138 50
104 58 188 58 611 0 370 -6 480 -36 571 -42 132 -132 206 -277 230 -40 7 -996
12 -1015 6z m866 -274 c18 -10 38 -34 50 -59 18 -41 19 -70 19 -469 0 -385 -2
-429 -18 -472 -29 -74 -44 -78 -311 -78 -124 0 -227 3 -227 8 -4 23 -5 1078
-1 1085 2 5 106 7 231 5 186 -3 231 -6 257 -20z"/>
<path d="M8590 5922 c-209 -21 -304 -108 -344 -317 -12 -65 -15 -158 -12 -505
1 -234 5 -438 9 -455 4 -16 10 -43 13 -60 26 -124 119 -218 250 -251 16 -4
193 -9 395 -10 302 -3 375 0 425 12 152 39 226 129 257 313 11 63 14 180 14
479 0 218 -4 417 -9 442 -12 70 -42 170 -50 170 -5 0 -8 6 -8 13 0 20 -59 86
-102 113 -79 50 -135 57 -488 58 -179 1 -336 0 -350 -2z m541 -275 c25 -16 39
-37 53 -77 16 -50 18 -92 18 -440 0 -582 10 -563 -302 -558 -171 3 -190 5
-210 23 -34 30 -47 64 -58 140 -10 76 -8 762 2 809 13 57 48 105 86 119 8 3
96 6 196 6 172 1 183 0 215 -22z"/>
<path d="M8834 5348 c-97 -170 -125 -221 -121 -224 2 -2 46 -23 99 -48 l96
-44 93 45 c52 24 95 46 97 48 3 3 -110 204 -178 317 l-16 27 -70 -121z m129
-65 c31 -51 54 -93 52 -93 -2 0 -27 11 -55 24 l-53 25 -55 -25 c-30 -13 -56
-24 -59 -24 -2 0 9 19 25 43 16 23 41 66 57 95 16 28 29 51 31 50 1 -2 27 -45
57 -95z m-15 -113 c22 -11 46 -20 52 -20 5 0 10 -5 10 -10 0 -11 -99 -61 -109
-56 -3 1 -28 13 -55 25 -26 12 -45 25 -42 29 8 7 88 50 97 51 3 1 24 -8 47
-19z"/>
<path d="M8724 5037 c14 -23 58 -100 99 -172 67 -116 97 -156 97 -126 0 7 98
183 187 334 4 7 -18 -2 -137 -59 l-64 -31 -103 48 -103 48 24 -42z m216 -86
c59 31 61 22 14 -56 -41 -68 -64 -91 -64 -65 0 5 -18 39 -40 75 -22 36 -40 68
-40 70 0 3 21 -6 48 -19 47 -24 48 -24 82 -5z"/>
<path d="M3392 5912 c-13 -2 -21 -9 -19 -15 133 -335 201 -506 208 -522 4 -11
101 -253 214 -538 l205 -519 -42 -80 c-63 -122 -176 -227 -262 -244 -11 -2
-45 -8 -75 -14 -30 -5 -181 -10 -334 -10 -271 0 -280 1 -264 18 26 29 22 77
-9 101 -35 27 -59 26 -89 -4 -29 -28 -32 -61 -9 -93 l15 -22 -87 0 c-82 0 -86
1 -71 18 19 22 23 40 14 73 -15 58 -105 57 -126 -2 -11 -32 -1 -65 23 -81 7
-5 7 -8 1 -9 -9 0 -1311 -6 -1844 -8 -96 -1 -172 -3 -170 -5 2 -2 45 -7 94
-11 50 -3 104 -8 120 -10 36 -4 119 -13 195 -20 30 -3 73 -8 95 -10 22 -2 90
-9 150 -15 61 -6 128 -13 150 -15 107 -11 246 -25 295 -30 30 -3 71 -7 90 -10
19 -2 64 -7 100 -10 36 -3 81 -8 100 -10 19 -2 61 -7 93 -10 31 -3 83 -7 115
-10 31 -3 73 -8 92 -10 19 -2 67 -7 105 -11 39 -4 81 -8 95 -9 14 -2 57 -6 95
-9 39 -4 86 -9 105 -11 32 -4 340 -35 498 -50 35 -4 73 -9 85 -11 12 -3 103
-7 202 -9 216 -5 276 5 413 72 77 37 109 61 181 132 169 167 260 337 466 866
47 121 90 229 95 240 5 11 70 178 145 370 75 193 140 359 145 370 25 54 70
178 67 181 -3 4 -319 8 -378 5 -25 -1 -30 -11 -89 -173 -35 -95 -69 -189 -76
-208 -7 -19 -44 -123 -84 -230 -75 -204 -183 -508 -195 -549 -10 -33 -18 -19
-55 94 -35 106 -105 307 -120 340 -5 11 -66 179 -137 373 l-127 352 -46 1
c-25 0 -110 1 -190 2 -80 1 -155 1 -168 -1z"/>
<path d="M2800 4642 c-19 -8 -46 -19 -60 -24 -23 -9 -21 -11 38 -33 44 -17 69
-22 85 -16 20 8 20 10 5 16 -10 4 -18 11 -18 16 0 12 34 11 47 -2 5 -5 22 -7
37 -3 34 8 26 15 -44 41 -50 18 -58 19 -90 5z"/>
<path d="M3096 4615 c25 -33 53 -55 70 -55 3 0 1 7 -6 15 -10 12 -10 15 3 15
9 0 20 -6 24 -13 9 -15 43 -30 43 -19 -2 24 -60 72 -100 81 -64 15 -64 15 -34
-24z"/>
<path d="M3032 4591 c-28 -49 -28 -50 6 -91 l29 -34 27 47 28 47 -26 35 c-15
19 -30 35 -35 35 -4 0 -17 -17 -29 -39z m18 -62 c0 -6 -4 -7 -10 -4 -5 3 -10
11 -10 16 0 6 5 7 10 4 6 -3 10 -11 10 -16z"/>
<path d="M2710 4563 c1 -16 2 -47 1 -71 -1 -41 -2 -43 -28 -40 -22 2 -29 10
-34 38 -9 43 -32 60 -83 60 -54 0 -75 -13 -60 -37 7 -12 23 -18 47 -17 36 0
36 0 46 -50 6 -28 15 -87 21 -131 6 -44 13 -93 16 -110 2 -16 16 -40 30 -52
23 -21 33 -23 182 -22 86 0 169 5 184 11 14 5 31 22 37 36 17 45 53 241 47
257 -4 11 -23 15 -76 15 -49 0 -70 4 -71 13 -1 6 -1 38 0 71 1 50 -1 57 -15
52 -8 -3 -20 -6 -25 -6 -5 0 -9 -11 -9 -24 0 -13 -7 -26 -15 -30 -10 -4 -15 1
-15 15 0 15 -5 19 -16 15 -9 -3 -18 -6 -20 -6 -2 0 -4 -22 -4 -50 0 -27 -4
-50 -10 -50 -5 0 -10 22 -10 49 0 46 -2 49 -32 61 -18 6 -41 16 -50 21 -30 15
-40 10 -38 -18z m67 -110 c-8 -7 -37 9 -31 19 3 5 12 4 20 -3 8 -6 13 -14 11
-16z"/>
<path d="M3120 4536 c0 -7 -10 -25 -21 -40 -12 -15 -20 -29 -17 -31 2 -2 23
-8 47 -14 l43 -9 29 46 c25 39 27 47 14 55 -10 5 -21 3 -31 -7 -20 -20 -35
-21 -28 -1 4 10 0 15 -15 15 -12 0 -21 -6 -21 -14z"/>
<path d="M3356 4139 c23 -47 39 -60 46 -39 2 5 13 -2 25 -15 12 -14 16 -25 10
-25 -7 0 -23 -3 -36 -7 -17 -4 -22 -3 -17 5 4 7 4 17 0 23 -4 7 -21 -4 -45
-27 -22 -21 -39 -33 -39 -27 0 6 10 20 23 30 36 28 39 40 21 75 -9 18 -18 35
-20 37 -4 5 -64 -59 -64 -69 0 -31 43 -84 82 -102 l42 -19 38 41 38 40 -22 44
c-15 33 -32 48 -64 63 l-43 20 25 -48z"/>
<path d="M6004 4015 c-2 -5 -3 -212 -2 -460 l3 -450 65 0 65 0 1 383 c1 211 4
386 8 389 3 4 6 0 6 -7 0 -8 29 -104 64 -214 36 -111 90 -280 120 -376 l56
-176 45 0 c41 1 46 3 54 31 5 16 27 86 49 155 22 69 63 199 92 290 28 91 62
197 75 235 l23 70 1 -390 1 -391 85 1 85 0 1 35 c0 19 1 225 2 457 l2 423 -22
1 c-13 0 -73 1 -133 2 l-110 2 -60 -185 c-32 -102 -73 -231 -91 -288 -18 -56
-36 -99 -40 -95 -8 9 -179 535 -179 552 0 6 -10 11 -22 12 -163 4 -241 2 -244
-6z"/>
<path d="M7314 4015 c-7 -5 -72 -190 -144 -410 -72 -220 -138 -417 -146 -438
-23 -61 -21 -62 56 -63 l70 0 31 101 c17 55 35 104 40 109 10 11 336 12 347 2
4 -4 23 -53 42 -109 l35 -102 88 0 c48 0 87 2 87 6 0 8 -301 903 -306 908 -8
9 -188 5 -200 -4z m136 -330 c28 -88 54 -167 57 -175 22 -56 23 -55 -109 -53
-68 1 -126 2 -129 2 -4 1 20 83 53 184 33 100 61 188 64 196 2 8 6 12 8 10 2
-2 27 -76 56 -164z"/>
<path d="M7934 4021 c-2 -2 -4 -210 -4 -460 l0 -457 83 1 82 0 2 170 c1 94 2
178 2 188 1 15 13 17 115 17 l114 0 10 -27 c6 -16 36 -93 66 -173 30 -80 57
-152 60 -160 5 -12 25 -15 95 -15 l89 -1 -18 46 c-10 25 -45 115 -79 200 -55
138 -60 156 -45 165 104 63 144 129 144 234 -1 142 -65 224 -200 261 -42 11
-506 21 -516 11z m465 -149 c69 -34 93 -101 63 -176 -24 -60 -75 -78 -229 -81
-71 -1 -126 2 -130 8 -5 8 -7 138 -4 240 l1 27 133 0 c104 -1 139 -5 166 -18z"/>
<path d="M8721 4020 c-5 -3 -9 -35 -10 -72 l-2 -68 124 0 124 0 -1 -372 c-1
-205 2 -380 5 -388 6 -12 24 -15 86 -14 43 1 81 2 84 3 4 0 6 174 5 386 l-1
385 123 0 122 0 0 70 c0 66 -1 70 -22 71 -105 4 -632 3 -637 -1z"/>
</g>
</svg>
